<mxfile host="www.draw.io" modified="2019-12-04T08:32:06.392Z" agent="Mozilla/5.0 (Windows NT 6.1; Win64; x64) AppleWebKit/537.36 (KHTML, like Gecko) Chrome/78.0.3904.108 Safari/537.36" etag="3B_h9BW7YMiKgneiuh9O" version="12.3.6" type="github" pages="1">
  <diagram id="tJWWhk9epjhnF2ZNmCeK" name="第 1 页">
    <mxGraphModel dx="1822" dy="794" grid="0" gridSize="10" guides="1" tooltips="1" connect="1" arrows="1" fold="1" page="0" pageScale="1" pageWidth="827" pageHeight="1169" math="0" shadow="0">
      <root>
        <mxCell id="0"/>
        <mxCell id="1" parent="0"/>
        <mxCell id="jZChNoaa0mM0v9DQ4_Sb-1" value="信息系统" style="rounded=1;whiteSpace=wrap;html=1;" parent="1" vertex="1">
          <mxGeometry x="-173" y="339" width="78" height="80" as="geometry"/>
        </mxCell>
        <mxCell id="jZChNoaa0mM0v9DQ4_Sb-2" value="记账系统" style="rounded=1;whiteSpace=wrap;html=1;" parent="1" vertex="1">
          <mxGeometry x="-173" y="456" width="79" height="73" as="geometry"/>
        </mxCell>
        <mxCell id="jZChNoaa0mM0v9DQ4_Sb-7" value="" style="endArrow=none;dashed=1;html=1;" parent="1" edge="1">
          <mxGeometry width="50" height="50" relative="1" as="geometry">
            <mxPoint x="-193" y="328.5" as="sourcePoint"/>
            <mxPoint x="-193" y="329" as="targetPoint"/>
            <Array as="points">
              <mxPoint x="185" y="329"/>
              <mxPoint x="185" y="430"/>
              <mxPoint x="-193" y="430"/>
            </Array>
          </mxGeometry>
        </mxCell>
        <mxCell id="jZChNoaa0mM0v9DQ4_Sb-9" value="认证" style="rounded=1;whiteSpace=wrap;html=1;" parent="1" vertex="1">
          <mxGeometry x="-76" y="341" width="62" height="31" as="geometry"/>
        </mxCell>
        <mxCell id="jZChNoaa0mM0v9DQ4_Sb-10" value="菜单" style="rounded=1;whiteSpace=wrap;html=1;" parent="1" vertex="1">
          <mxGeometry x="17" y="341" width="62" height="31" as="geometry"/>
        </mxCell>
        <mxCell id="jZChNoaa0mM0v9DQ4_Sb-11" value="权限" style="rounded=1;whiteSpace=wrap;html=1;" parent="1" vertex="1">
          <mxGeometry x="110" y="339" width="62" height="31" as="geometry"/>
        </mxCell>
        <mxCell id="jZChNoaa0mM0v9DQ4_Sb-13" value="" style="endArrow=none;dashed=1;html=1;" parent="1" edge="1">
          <mxGeometry width="50" height="50" relative="1" as="geometry">
            <mxPoint x="-195" y="442" as="sourcePoint"/>
            <mxPoint x="-195" y="442.5" as="targetPoint"/>
            <Array as="points">
              <mxPoint x="188" y="443"/>
              <mxPoint x="188" y="544"/>
              <mxPoint x="-195" y="543.5"/>
            </Array>
          </mxGeometry>
        </mxCell>
        <mxCell id="jZChNoaa0mM0v9DQ4_Sb-14" value="日志" style="rounded=1;whiteSpace=wrap;html=1;" parent="1" vertex="1">
          <mxGeometry x="-76" y="388" width="62" height="31" as="geometry"/>
        </mxCell>
        <mxCell id="jZChNoaa0mM0v9DQ4_Sb-15" value="" style="endArrow=none;dashed=1;html=1;" parent="1" edge="1">
          <mxGeometry width="50" height="50" relative="1" as="geometry">
            <mxPoint x="313" y="328.5" as="sourcePoint"/>
            <mxPoint x="313" y="329" as="targetPoint"/>
            <Array as="points">
              <mxPoint x="555" y="329"/>
              <mxPoint x="555" y="543"/>
              <mxPoint x="313" y="543"/>
            </Array>
          </mxGeometry>
        </mxCell>
        <mxCell id="jZChNoaa0mM0v9DQ4_Sb-16" value="日志" style="rounded=1;whiteSpace=wrap;html=1;" parent="1" vertex="1">
          <mxGeometry x="-76" y="498" width="62" height="31" as="geometry"/>
        </mxCell>
        <mxCell id="jZChNoaa0mM0v9DQ4_Sb-17" value="认证" style="rounded=1;whiteSpace=wrap;html=1;" parent="1" vertex="1">
          <mxGeometry x="-76" y="456" width="62" height="31" as="geometry"/>
        </mxCell>
        <mxCell id="jZChNoaa0mM0v9DQ4_Sb-18" value="菜单" style="rounded=1;whiteSpace=wrap;html=1;" parent="1" vertex="1">
          <mxGeometry x="17" y="456" width="62" height="31" as="geometry"/>
        </mxCell>
        <mxCell id="jZChNoaa0mM0v9DQ4_Sb-19" value="权限" style="rounded=1;whiteSpace=wrap;html=1;" parent="1" vertex="1">
          <mxGeometry x="110" y="456" width="62" height="31" as="geometry"/>
        </mxCell>
        <mxCell id="jZChNoaa0mM0v9DQ4_Sb-20" value="用户" style="rounded=1;whiteSpace=wrap;html=1;" parent="1" vertex="1">
          <mxGeometry x="331" y="341" width="62" height="31" as="geometry"/>
        </mxCell>
        <mxCell id="jZChNoaa0mM0v9DQ4_Sb-21" value="信息" style="rounded=1;whiteSpace=wrap;html=1;" parent="1" vertex="1">
          <mxGeometry x="430" y="341" width="62" height="31" as="geometry"/>
        </mxCell>
        <mxCell id="jZChNoaa0mM0v9DQ4_Sb-22" value="定单" style="rounded=1;whiteSpace=wrap;html=1;" parent="1" vertex="1">
          <mxGeometry x="331" y="403.5" width="62" height="31" as="geometry"/>
        </mxCell>
        <mxCell id="jZChNoaa0mM0v9DQ4_Sb-23" value="日志" style="rounded=1;whiteSpace=wrap;html=1;" parent="1" vertex="1">
          <mxGeometry x="430" y="403.5" width="62" height="31" as="geometry"/>
        </mxCell>
        <mxCell id="DrqvwlRdAEcvYH56wbdn-1" value="" style="endArrow=none;dashed=1;html=1;" edge="1" parent="1">
          <mxGeometry width="50" height="50" relative="1" as="geometry">
            <mxPoint x="196" y="327.5" as="sourcePoint"/>
            <mxPoint x="196" y="328" as="targetPoint"/>
            <Array as="points">
              <mxPoint x="302" y="328"/>
              <mxPoint x="302" y="542"/>
              <mxPoint x="196" y="542"/>
            </Array>
          </mxGeometry>
        </mxCell>
        <mxCell id="DrqvwlRdAEcvYH56wbdn-2" value="RustFull&lt;br&gt;接口" style="text;html=1;align=center;verticalAlign=middle;resizable=0;points=[];;autosize=1;" vertex="1" parent="1">
          <mxGeometry x="222" y="418.5" width="54" height="32" as="geometry"/>
        </mxCell>
      </root>
    </mxGraphModel>
  </diagram>
</mxfile>
